<?xml version="1.0" encoding="iso-8859-1"?>
<!-- Generator: Adobe Illustrator 19.0.0, SVG Export Plug-In . SVG Version: 6.00 Build 0)  -->
<svg version="1.1" id="Capa_1" xmlns="http://www.w3.org/2000/svg" xmlns:xlink="http://www.w3.org/1999/xlink" x="0px" y="0px"
	 viewBox="0 0 512 512" style="enable-background:new 0 0 512 512;" xml:space="preserve">
<path style="fill:#44C1DD;" d="M506.842,29.296H360.504c-1.376,0-2.694,0.549-3.663,1.526l-35.306,35.607l0,0v416.274h160.717
	v-0.258h0.261l27.852-26.066c1.042-0.975,1.634-2.339,1.634-3.766v-381V34.455C512,31.606,509.691,29.296,506.842,29.296z"/>
<path style="fill:#F16645;" d="M199.704,116.587c-1.376,0-2.694,0.549-3.663,1.526l-35.306,35.607v328.984h160.717l0,0V153.72l0,0
	v-0.156v-36.977L199.704,116.587L199.704,116.587z"/>
<path style="fill:#FFE1A0;" d="M38.968,169.09c-1.376,0-2.694,0.549-3.663,1.526L0,206.223l0,0v271.323
	c0,2.849,2.309,5.158,5.158,5.158h155.56l0,0V206.223l0,0v-37.133H38.968V169.09z"/>
<path style="fill:#EB5836;" d="M199.787,116.587c-1.376,0-2.694,0.549-3.663,1.526l-35.306,35.607h98.389v328.984h62.328V153.72
	v-0.156v-36.977L199.787,116.587L199.787,116.587z"/>
<path style="fill:#EFCC86;" d="M38.968,169.09c-1.376,0-2.694,0.549-3.663,1.526L0,206.223h98.389v276.481h62.328V206.223v-37.133
	H38.968V169.09z"/>
<path style="fill:#37B0C4;" d="M506.842,29.296H360.504c-1.376,0-2.694,0.549-3.663,1.526l-35.306,35.607h98.651v416.274h62.067
	l28.13-26.575c1.031-0.974,1.616-2.331,1.616-3.75V34.453C512,31.606,509.691,29.296,506.842,29.296z"/>
<g>
</g>
<g>
</g>
<g>
</g>
<g>
</g>
<g>
</g>
<g>
</g>
<g>
</g>
<g>
</g>
<g>
</g>
<g>
</g>
<g>
</g>
<g>
</g>
<g>
</g>
<g>
</g>
<g>
</g>
</svg>
