<?xml version="1.0"?>
<svg xmlns="http://www.w3.org/2000/svg" xmlns:xlink="http://www.w3.org/1999/xlink" xmlns:svgjs="http://svgjs.com/svgjs" version="1.1" width="512" height="512" x="0" y="0" viewBox="0 0 511.99969 511" style="enable-background:new 0 0 512 512" xml:space="preserve" class=""><g><path xmlns="http://www.w3.org/2000/svg" d="m506.144531 163.679688-39.433593-39.433594c-12.566407-12.5625-34.144532-3.648438-34.144532 14.144531v23.90625c-51.269531 11.753906-94.140625 45.769531-117.859375 91.292969-5.46875-10.480469-11.953125-20.34375-19.320312-29.46875v-144.199219h19.433593c17.769532 0 26.722657-21.558594 14.140626-34.140625-10.476563-10.480469-37.167969-37.175781-39.484376-39.480469-7.828124-7.777343-20.480468-7.707031-28.230468.042969l-39.4375 39.4375c-12.558594 12.5625-3.648438 34.140625 14.144531 34.140625h19.433594v107.71875c-27.9375-18.597656-61.414063-29.492187-97.386719-29.613281v-58.871094c0-17.757812-21.550781-26.730469-34.140625-14.144531l-118 118.003906c-7.8125 7.808594-7.8125 20.472656 0 28.285156l118 118c12.5625 12.5625 34.140625 3.648438 34.140625-14.144531v-58.664062c32.066406.332031 58.050781 26.523437 58.050781 58.664062v157.335938c0 11.046874 8.957031 20 20 20h78.667969c11.046875 0 20-8.953126 20-20v-157.132813c0-62.046875 41.300781-114.617187 97.847656-131.691406v13.589843c0 17.921876 21.65625 26.632813 34.144532 14.140626l39.425781-39.425782c7.871093-7.863281 7.757812-20.519531.007812-28.292968zm-211.425781 308.8125h-38.667969v-137.335938c0-54.402344-44.261719-98.667969-98.664062-98.667969h-19.386719c-11.046875 0-20 8.957031-20 20v30.386719l-69.714844-69.71875 69.714844-69.714844v30.582032c0 11.046874 8.953125 20 20 20h19.386719c75.726562 0 137.332031 61.609374 137.332031 137.335937zm0 0" fill="#ffffff" data-original="#000000" style="" class=""/></g></svg>
