<svg id="Capa_1" enable-background="new 0 0 512 512" height="512" viewBox="0 0 512 512" width="512" xmlns="http://www.w3.org/2000/svg"><g><g><g><path d="m497.136 256.923h-30.885v-57.196c0-27.252-22.301-50-49.55-49.616-14.021.197-26.947 6.218-36.079 16.707-1.405 1.614-3.827 1.851-5.542.571l-18.18-13.579c-1.88-1.404-2.23-4.111-.725-5.912 15.07-18.031 37.649-28.678 61.238-28.678 43.96 0 79.723 35.764 79.723 79.723z" fill="#f4fbff"/></g></g><g><g><path d="m417.413 119.22c-2.544 0-5.074.131-7.587.375 40.385 3.862 72.076 37.969 72.076 79.348v57.98h15.233v-57.98c.001-43.96-35.762-79.723-79.722-79.723z" fill="#e4f6ff"/></g></g><g><path d="m361.939 392.78h-268.663c-51.515 0-93.276-41.761-93.276-93.276 0-51.515 41.761-93.276 93.276-93.276h268.663c51.515 0 93.276 41.761 93.276 93.276.001 51.515-41.761 93.276-93.276 93.276z" fill="#cbe2ff"/></g><path d="m408.924 218.914c3.47 9.766 5.365 20.279 5.365 31.235 0 51.515-41.761 93.276-93.276 93.276h-268.663c-17.134 0-33.186-4.625-46.984-12.687 12.846 36.152 47.352 62.041 87.911 62.041h268.663c51.515 0 93.276-41.761 93.276-93.276 0-34.38-18.605-64.412-46.292-80.589z" fill="#bed8fb"/><g><path d="m489 368.617h-131.013c-12.703 0-23-10.297-23-23v-85.807c0-12.703 10.297-23 23-23h131.013c12.703 0 23 10.297 23 23v85.807c0 12.703-10.297 23-23 23z" fill="#365e7d"/></g><path d="m489 236.81h-15.062v83.745c0 5.523-4.477 10-10 10h-128.95v15.062c0 12.703 10.297 23 23 23h131.012c12.703 0 23-10.297 23-23v-85.807c0-12.703-10.297-23-23-23z" fill="#2b4d66"/><g><path d="m446.079 284.567c0-13.321-11.533-23.949-25.159-22.442-10.297 1.138-18.62 9.381-19.846 19.668-1.101 9.24 3.384 17.537 10.521 21.969 1.48.919 2.343 2.57 2.343 4.312v12.821c0 1.706 1.383 3.089 3.089 3.089h12.933c1.706 0 3.089-1.383 3.089-3.089v-12.821c0-1.739.859-3.392 2.337-4.309 6.418-3.982 10.693-11.089 10.693-19.198z" fill="#80b4fb"/></g><g><path d="m420.92 262.125c-1.465.162-2.884.483-4.254.918 9.129 2.898 15.745 11.437 15.745 21.525 0 8.109-4.275 15.216-10.693 19.199-1.478.917-2.337 2.569-2.337 4.309v12.821c0 1.58-1.191 2.868-2.722 3.052.122.015.241.037.367.037h12.933c1.706 0 3.089-1.383 3.089-3.089v-12.821c0-1.739.859-3.392 2.337-4.309 6.418-3.983 10.693-11.09 10.693-19.199.001-13.322-11.532-23.95-25.158-22.443z" fill="#61a2f9"/></g><g fill="#80b4fb"><path d="m124.478 281.129c-2.132-3.694-6.857-4.96-10.548-2.826l-14.101 8.141v-16.283c0-4.264-3.456-7.721-7.721-7.721s-7.721 3.457-7.721 7.721v16.283l-14.101-8.141c-3.696-2.134-8.416-.868-10.548 2.826-2.132 3.693-.867 8.416 2.826 10.548l14.101 8.141-14.101 8.141c-3.693 2.132-4.958 6.854-2.826 10.547 1.43 2.477 4.026 3.862 6.694 3.862 1.31 0 2.638-.334 3.854-1.036l14.101-8.141v16.282c0 4.264 3.457 7.721 7.721 7.721 4.265 0 7.721-3.457 7.721-7.721v-16.282l14.101 8.141c1.217.702 2.544 1.036 3.854 1.036 2.668 0 5.264-1.385 6.694-3.862 2.132-3.693.867-8.416-2.826-10.547l-14.101-8.141 14.101-8.141c3.693-2.132 4.959-6.855 2.826-10.548z"/><path d="m211.331 281.129c-2.131-3.694-6.857-4.96-10.547-2.826l-14.102 8.141v-16.283c0-4.264-3.457-7.721-7.721-7.721s-7.721 3.457-7.721 7.721v16.282l-14.101-8.141c-3.696-2.134-8.416-.867-10.547 2.826-2.133 3.693-.867 8.416 2.826 10.548l14.101 8.141-14.101 8.141c-3.693 2.132-4.959 6.854-2.826 10.547 1.43 2.477 4.025 3.862 6.694 3.862 1.31 0 2.638-.334 3.854-1.036l14.101-8.141v16.282c0 4.264 3.457 7.721 7.721 7.721s7.721-3.457 7.721-7.721v-16.283l14.102 8.141c1.216.702 2.543 1.036 3.854 1.036 2.668 0 5.264-1.385 6.694-3.862 2.133-3.693.867-8.416-2.826-10.547l-14.101-8.141 14.101-8.141c3.69-2.13 4.956-6.853 2.824-10.546z"/><path d="m295.962 307.959-14.101-8.141 14.101-8.141c3.693-2.132 4.958-6.854 2.826-10.548-2.133-3.694-6.857-4.96-10.548-2.826l-14.101 8.141v-16.283c0-4.264-3.457-7.721-7.721-7.721s-7.721 3.457-7.721 7.721v16.283l-14.101-8.141c-3.696-2.134-8.416-.868-10.548 2.826-2.132 3.693-.867 8.416 2.826 10.548l14.101 8.141-14.101 8.141c-3.693 2.132-4.958 6.854-2.826 10.547 1.43 2.477 4.026 3.862 6.694 3.862 1.31 0 2.638-.334 3.854-1.036l14.101-8.141v16.282c0 4.264 3.457 7.721 7.721 7.721s7.721-3.457 7.721-7.721v-16.282l14.101 8.141c1.217.702 2.544 1.036 3.854 1.036 2.668 0 5.264-1.385 6.694-3.862 2.133-3.693.867-8.415-2.826-10.547z"/></g></g></svg>