<?xml version="1.0"?>
<svg xmlns="http://www.w3.org/2000/svg" xmlns:xlink="http://www.w3.org/1999/xlink" xmlns:svgjs="http://svgjs.com/svgjs" version="1.1" width="512" height="512" x="0" y="0" viewBox="0 0 511.998 511.998" style="enable-background:new 0 0 512 512" xml:space="preserve" class=""><g>
<g xmlns="http://www.w3.org/2000/svg">
	<g>
		<path d="M462.497,32.932c-27.295,0-49.503,22.206-49.503,49.503c0,15.018,6.731,28.485,17.324,37.571l-91.389,152.899    c-5.173-1.839-10.735-2.848-16.531-2.848c-4.732,0-9.304,0.682-13.641,1.926l-78.095-83.754    c3.003-6.381,4.691-13.498,4.691-21.005c0-27.296-22.207-49.503-49.503-49.503s-49.503,22.206-49.503,49.503    c0,14.03,5.877,26.706,15.286,35.722l-95.113,177.62c-2.295-0.327-4.636-0.507-7.019-0.507C22.208,380.059,0,402.267,0,429.563    s22.208,49.503,49.503,49.503c27.295,0,49.503-22.206,49.503-49.503c0-13.667-5.568-26.056-14.552-35.023l95.414-178.188    c1.963,0.237,3.957,0.375,5.982,0.375c8.406,0,16.327-2.112,23.267-5.824l73.667,79.005c-6.206,8.271-9.889,18.539-9.889,29.652    c0,27.296,22.207,49.504,49.503,49.504s49.503-22.207,49.503-49.504c0-10.061-3.024-19.426-8.201-27.246l95.911-160.465    c0.955,0.055,1.917,0.091,2.887,0.091c27.295,0,49.503-22.206,49.503-49.503S489.793,32.932,462.497,32.932z M49.503,447.846    c-10.082,0-18.283-8.201-18.283-18.283c0-10.082,8.202-18.283,18.283-18.283c10.081,0,18.283,8.201,18.283,18.283    C67.786,439.645,59.585,447.846,49.503,447.846z M185.85,185.507c-10.082,0-18.283-8.201-18.283-18.283    c0-10.082,8.202-18.283,18.283-18.283c10.081,0,18.283,8.201,18.283,18.283C204.133,177.306,195.931,185.507,185.85,185.507z     M322.398,337.843c-10.082,0-18.283-8.202-18.283-18.284s8.202-18.283,18.283-18.283s18.283,8.201,18.283,18.283    C340.681,329.641,332.478,337.843,322.398,337.843z M462.497,100.719c-10.082,0-18.283-8.201-18.283-18.283    c0-10.082,8.202-18.283,18.283-18.283c10.081,0,18.283,8.2,18.283,18.282C480.78,92.517,472.578,100.719,462.497,100.719z" fill="#ffffff" data-original="#000000" style=""/>
	</g>
</g>
<g xmlns="http://www.w3.org/2000/svg">
</g>
<g xmlns="http://www.w3.org/2000/svg">
</g>
<g xmlns="http://www.w3.org/2000/svg">
</g>
<g xmlns="http://www.w3.org/2000/svg">
</g>
<g xmlns="http://www.w3.org/2000/svg">
</g>
<g xmlns="http://www.w3.org/2000/svg">
</g>
<g xmlns="http://www.w3.org/2000/svg">
</g>
<g xmlns="http://www.w3.org/2000/svg">
</g>
<g xmlns="http://www.w3.org/2000/svg">
</g>
<g xmlns="http://www.w3.org/2000/svg">
</g>
<g xmlns="http://www.w3.org/2000/svg">
</g>
<g xmlns="http://www.w3.org/2000/svg">
</g>
<g xmlns="http://www.w3.org/2000/svg">
</g>
<g xmlns="http://www.w3.org/2000/svg">
</g>
<g xmlns="http://www.w3.org/2000/svg">
</g>
</g></svg>
